<?xml version="1.0" standalone="no"?>
<!DOCTYPE svg PUBLIC "-//W3C//DTD SVG 20010904//EN"
 "http://www.w3.org/TR/2001/REC-SVG-20010904/DTD/svg10.dtd">
<svg version="1.0" xmlns="http://www.w3.org/2000/svg"
 width="4096.000000pt" height="4096.000000pt" viewBox="0 0 4096.000000 4096.000000"
 preserveAspectRatio="xMidYMid meet">
<metadata>
Created by potrace 1.14, written by Peter Selinger 2001-2017
</metadata>
<g transform="translate(0.000000,4096.000000) scale(0.100000,-0.100000)"
fill="#000000" stroke="none">
<path d="M20600 38504 c-70 -19 -148 -66 -204 -124 -34 -34 -560 -948 -2222
-3865 -1197 -2101 -2190 -3848 -2206 -3882 -63 -133 -61 -262 6 -398 64 -129
190 -221 336 -244 43 -7 547 -11 1463 -11 768 0 1397 -2 1397 -5 0 -6 -797
-1625 -803 -1631 -1 -2 -61 -13 -133 -24 -1825 -296 -3625 -955 -5294 -1938
-497 -293 -910 -566 -1476 -977 l-61 -44 -48 217 c-438 1984 -1259 3925 -2357
5576 -961 1443 -2071 2608 -3323 3488 -849 596 -1810 1065 -2720 1327 -442
127 -1072 251 -1274 251 -127 0 -239 -49 -328 -142 -92 -98 -109 -151 -147
-453 -75 -598 -107 -1138 -107 -1811 0 -461 10 -745 36 -1119 212 -2956 1251
-5887 2943 -8300 921 -1313 2053 -2448 3224 -3233 l77 -52 -82 -128 c-1166
-1792 -1911 -3742 -2131 -5572 -80 -669 -91 -1368 -30 -2020 146 -1569 710
-3113 1649 -4515 446 -666 879 -1190 1480 -1791 409 -409 694 -665 1110 -999
1774 -1421 3973 -2480 6391 -3079 1604 -397 3224 -582 4934 -563 547 6 744 14
1220 48 3152 224 6125 1193 8560 2790 602 396 1196 854 1750 1353 204 183 736
718 922 926 714 800 1274 1619 1713 2505 583 1180 906 2380 985 3665 24 376
12 985 -26 1395 -181 1968 -948 4030 -2217 5966 l-17 26 72 48 c312 207 713
516 1063 819 2157 1869 3854 4745 4638 7861 277 1098 435 2168 487 3290 13
284 13 1071 0 1346 -27 571 -103 1319 -145 1440 -39 110 -131 209 -242 262
-65 31 -73 32 -193 32 -135 -1 -323 -28 -635 -91 -1366 -280 -2697 -929 -3930
-1918 -914 -733 -1777 -1664 -2515 -2716 -1220 -1738 -2101 -3751 -2585 -5908
-24 -107 -45 -195 -47 -197 -2 -2 -96 62 -208 144 -1209 872 -2438 1536 -3775
2038 -446 167 -1048 357 -1508 476 l-208 53 1968 1762 c1315 1177 1979 1777
2001 1810 48 71 73 161 73 257 -1 200 -122 365 -319 434 -43 14 -190 16 -1578
21 l-1531 5 2239 2690 c1232 1480 2255 2712 2274 2740 56 82 77 160 72 273 -3
83 -8 107 -35 165 -36 76 -116 166 -181 204 -23 14 -70 34 -103 44 -59 18
-170 19 -4072 18 -3499 0 -4019 -2 -4067 -15z m7024 -906 c-7 -12 -2830 -3403
-4052 -4868 -538 -646 -527 -628 -527 -811 0 -113 1 -116 38 -192 60 -122 154
-202 292 -248 32 -11 311 -14 1455 -19 l1416 -5 -1225 -1095 c-673 -602 -1461
-1307 -1750 -1566 l-526 -471 -225 33 c-466 67 -962 113 -1450 135 -305 13
-1167 7 -1412 -11 -87 -6 -169 -10 -182 -8 -24 3 -14 27 305 673 566 1149 567
1152 578 1228 34 239 -122 463 -356 512 -57 12 -287 15 -1450 15 -761 0 -1383
2 -1383 4 0 2 575 1013 1278 2247 703 1234 1561 2742 1908 3351 l629 1107
3323 1 c2656 0 3322 -3 3316 -12z m-20801 -5155 c1129 -1206 2048 -2634 2744
-4263 513 -1200 891 -2524 1088 -3805 20 -126 42 -252 51 -280 63 -202 292
-343 499 -308 179 31 325 160 370 328 14 50 17 87 13 163 l-6 98 57 44 c1095
850 2220 1518 3436 2040 1368 588 2799 951 4255 1079 429 38 635 46 1155 46
680 -1 1117 -28 1740 -111 2470 -326 4890 -1356 6996 -2977 l157 -121 -6 -98
c-4 -76 -1 -113 13 -163 45 -168 192 -298 370 -327 213 -35 435 101 499 307 9
28 31 154 51 280 424 2760 1618 5452 3321 7492 176 210 426 489 599 668 l106
110 -5 -85 c-24 -346 -16 -1034 15 -1370 107 -1178 475 -1866 1157 -2164 351
-153 685 -205 1552 -241 206 -9 461 -22 565 -30 174 -14 413 -41 442 -50 13
-4 -5 -58 -131 -391 -607 -1609 -1521 -3175 -2567 -4395 -320 -373 -749 -816
-1064 -1099 -683 -612 -1385 -1102 -2123 -1480 -57 -29 -127 -74 -156 -101
-89 -81 -146 -212 -146 -334 0 -248 210 -455 460 -455 86 0 146 21 325 114
l165 85 67 -102 c319 -491 626 -1032 879 -1551 927 -1905 1319 -3813 1144
-5571 -178 -1777 -930 -3485 -2200 -4995 -278 -330 -824 -894 -1125 -1161
-1428 -1268 -3069 -2218 -5016 -2904 -3082 -1086 -6653 -1308 -9949 -619
-2561 536 -4870 1591 -6705 3065 -377 303 -603 506 -991 894 -478 477 -795
844 -1146 1328 -1167 1606 -1767 3379 -1768 5217 0 788 100 1557 310 2385 333
1313 926 2636 1754 3913 l66 103 73 -39 c265 -146 330 -168 452 -159 189 14
349 142 405 324 36 117 23 233 -40 352 -45 84 -119 148 -242 211 -1746 893
-3309 2428 -4526 4446 -533 885 -982 1831 -1337 2822 -23 64 -30 94 -22 97 74
24 533 60 1007 80 426 18 604 29 790 51 619 71 1043 267 1338 618 344 410 525
987 594 1886 14 187 17 915 5 1148 -4 83 -6 152 -4 152 3 0 88 -89 190 -197z"/>
<path d="M12840 21469 c-421 -43 -869 -196 -1230 -421 -332 -206 -683 -544
-897 -863 -62 -93 -170 -293 -230 -428 -286 -639 -327 -1382 -112 -2052 304
-953 1085 -1687 2058 -1935 611 -156 1300 -96 1880 164 340 152 605 337 881
615 359 361 599 771 735 1254 79 281 110 543 102 860 -11 421 -97 788 -272
1154 -440 921 -1294 1532 -2305 1647 -146 17 -465 19 -610 5z m-755 -1580
c114 -35 235 -133 298 -240 124 -211 90 -476 -83 -649 -215 -215 -547 -215
-761 -1 -114 114 -165 247 -156 406 14 264 204 468 472 509 52 7 165 -5 230
-25z"/>
<path d="M27500 21464 c-859 -103 -1613 -565 -2097 -1287 -87 -129 -238 -430
-296 -589 -175 -478 -222 -995 -137 -1500 174 -1028 923 -1906 1915 -2246 589
-202 1231 -209 1820 -21 438 140 842 386 1169 714 651 651 952 1558 821 2472
-67 465 -274 955 -570 1344 -102 133 -391 422 -520 521 -459 347 -951 543
-1504 598 -141 14 -462 11 -601 -6z m-737 -1571 c163 -48 301 -178 358 -338
12 -34 23 -97 26 -145 10 -161 -42 -297 -156 -411 -305 -305 -817 -151 -907
273 -83 390 293 735 679 621z"/>
<path d="M19176 16879 c-94 -22 -216 -111 -269 -196 -111 -179 -89 -400 55
-558 49 -54 73 -67 557 -309 l506 -254 -6 -328 c-6 -367 -9 -387 -79 -529 -75
-152 -203 -280 -354 -354 -150 -74 -166 -76 -566 -76 -405 0 -419 2 -578 82
-69 34 -115 66 -174 122 -167 157 -237 311 -257 570 -9 110 -14 132 -45 198
-87 182 -286 287 -480 255 -231 -39 -386 -229 -386 -472 0 -315 104 -646 291
-926 103 -155 304 -354 459 -457 194 -128 385 -209 613 -259 97 -22 122 -23
552 -23 433 0 454 1 559 23 319 69 592 211 831 434 l75 70 75 -70 c242 -226
516 -367 855 -439 75 -16 139 -18 535 -18 430 0 455 1 552 23 361 79 639 235
894 499 225 233 376 526 439 849 27 140 37 330 21 406 -50 238 -286 401 -520
359 -150 -27 -273 -119 -337 -254 -31 -66 -36 -88 -45 -198 -21 -258 -89 -411
-253 -566 -91 -86 -215 -157 -331 -190 -91 -25 -682 -31 -798 -8 -291 59 -519
272 -604 564 -13 45 -18 123 -22 382 l-6 326 495 248 c471 236 498 251 556
309 229 229 167 590 -125 734 l-75 37 -1285 2 c-755 1 -1302 -3 -1325 -8z"/>
<path d="M10810 15345 c-397 -51 -791 -221 -1090 -470 -99 -82 -271 -261 -341
-355 -125 -166 -233 -364 -303 -552 -131 -353 -165 -788 -91 -1154 80 -393
270 -758 549 -1050 176 -186 358 -319 597 -438 818 -408 1800 -245 2449 404
399 399 620 929 620 1488 0 346 -71 657 -216 951 -299 606 -859 1032 -1521
1157 -172 32 -484 42 -653 19z"/>
<path d="M29615 15345 c-716 -94 -1336 -543 -1649 -1195 -96 -200 -168 -448
-196 -680 -13 -110 -13 -382 1 -490 107 -867 725 -1578 1569 -1805 497 -134
1025 -80 1489 151 239 119 422 253 596 436 514 541 704 1277 520 2011 -64 254
-192 517 -364 747 -68 92 -240 270 -341 355 -306 255 -720 430 -1122 474 -128
14 -378 12 -503 -4z"/>
</g>
</svg>
